# Blender 4.5.2 LTS
# www.blender.org
mtllib Mesatextured.mtl
o obj_0
v 0.125416 0.000000 37.525013
v 5.020116 0.000000 37.204212
v 6.651717 0.000000 49.597210
v 0.125416 0.000000 50.025013
v 9.831116 0.000000 36.247211
v 13.066416 0.000000 48.321316
v 14.476015 0.000000 34.670513
v 19.259615 0.000000 46.219013
v 18.875416 0.000000 32.501011
v 25.125416 0.000000 43.326313
v 22.954016 0.000000 29.775814
v 30.563515 0.000000 39.692715
v 26.641914 0.000000 26.541515
v 35.480717 0.000000 35.380314
v 29.876217 0.000000 22.853615
v 39.793118 0.000000 30.463116
v 32.601418 0.000000 18.775013
v 43.426716 0.000000 25.025013
v 34.770916 0.000000 14.375614
v 46.319416 0.000000 19.159214
v 36.347614 0.000000 9.730713
v 48.421715 0.000000 12.966015
v 37.304615 0.000000 4.919712
v 49.697617 0.000000 6.551311
v 37.625416 0.000000 0.025013
v 50.125416 0.000000 0.025013
v 37.304615 0.000000 -4.869686
v 49.697617 0.000000 -6.501287
v 36.347614 0.000000 -9.680687
v 48.421715 0.000000 -12.915987
v 34.770916 0.000000 -14.325586
v 46.319416 0.000000 -19.109186
v 32.601418 0.000000 -18.724987
v 43.426716 0.000000 -24.974987
v 29.876217 0.000000 -22.803587
v 39.793118 0.000000 -30.413086
v 26.641914 0.000000 -26.491488
v 35.480717 0.000000 -35.330288
v 22.954016 0.000000 -29.725788
v 30.563515 0.000000 -39.642689
v 18.875416 0.000000 -32.450989
v 25.125416 0.000000 -43.276287
v 14.476015 0.000000 -34.620487
v 19.259615 0.000000 -46.168987
v 9.831116 0.000000 -36.197186
v 13.066416 0.000000 -48.271286
v 5.020116 0.000000 -37.154186
v 6.651717 0.000000 -49.547188
v 0.125416 0.000000 -37.474987
v 0.125416 0.000000 -49.974987
v -4.769284 0.000000 -37.154186
v -6.400884 0.000000 -49.547188
v -9.580284 0.000000 -36.197186
v -12.815584 0.000000 -48.271286
v -14.225183 0.000000 -34.620487
v -19.008783 0.000000 -46.168987
v -18.624584 0.000000 -32.450989
v -24.874584 0.000000 -43.276287
v -22.703184 0.000000 -29.725788
v -30.312685 0.000000 -39.642689
v -26.391085 0.000000 -26.491488
v -35.229885 0.000000 -35.330288
v -29.625383 0.000000 -22.803587
v -39.542286 0.000000 -30.413086
v -32.350582 0.000000 -18.724987
v -43.175884 0.000000 -24.974987
v -34.520084 0.000000 -14.325586
v -46.068584 0.000000 -19.109186
v -36.096783 0.000000 -9.680687
v -48.170883 0.000000 -12.915987
v -37.053783 0.000000 -4.869686
v -49.446785 0.000000 -6.501287
v -37.374584 0.000000 0.025013
v -49.874584 0.000000 0.025013
v -37.053783 0.000000 4.919712
v -49.446785 0.000000 6.551311
v -36.096783 0.000000 9.730713
v -48.170883 0.000000 12.966015
v -34.520084 0.000000 14.375614
v -46.068584 0.000000 19.159214
v -32.350582 0.000000 18.775013
v -43.175884 0.000000 25.025013
v -29.625383 0.000000 22.853615
v -39.542286 0.000000 30.463116
v -26.391085 0.000000 26.541515
v -35.229885 0.000000 35.380314
v -22.703184 0.000000 29.775814
v -30.312685 0.000000 39.692715
v -18.624584 0.000000 32.501011
v -24.874584 0.000000 43.326313
v -14.225183 0.000000 34.670513
v -19.008783 0.000000 46.219013
v -9.580284 0.000000 36.247211
v -12.815584 0.000000 48.321316
v -4.769284 0.000000 37.204212
v -6.400884 0.000000 49.597210
v 0.125416 10.000000 37.525013
v 5.020116 10.000000 37.204212
v 9.831116 10.000000 36.247211
v 14.476015 10.000000 34.670513
v 18.875416 10.000000 32.501011
v 22.954016 10.000000 29.775814
v 26.641914 10.000000 26.541515
v 29.876217 10.000000 22.853615
v 32.601418 10.000000 18.775013
v 34.770916 10.000000 14.375614
v 36.347614 10.000000 9.730713
v 37.304615 10.000000 4.919712
v 37.625416 10.000000 0.025013
v 37.304615 10.000000 -4.869686
v 36.347614 10.000000 -9.680687
v 34.770916 10.000000 -14.325586
v 32.601418 10.000000 -18.724987
v 29.876217 10.000000 -22.803587
v 26.641914 10.000000 -26.491488
v 22.954016 10.000000 -29.725788
v 18.875416 10.000000 -32.450989
v 14.476015 10.000000 -34.620487
v 9.831116 10.000000 -36.197186
v 5.020116 10.000000 -37.154186
v 0.125416 10.000000 -37.474987
v -4.769284 10.000000 -37.154186
v -9.580284 10.000000 -36.197186
v -14.225183 10.000000 -34.620487
v -18.624584 10.000000 -32.450989
v -22.703184 10.000000 -29.725788
v -26.391085 10.000000 -26.491488
v -29.625383 10.000000 -22.803587
v -32.350582 10.000000 -18.724987
v -34.520084 10.000000 -14.325586
v -36.096783 10.000000 -9.680687
v -37.053783 10.000000 -4.869686
v -37.374584 10.000000 0.025013
v -37.053783 10.000000 4.919712
v -36.096783 10.000000 9.730713
v -34.520084 10.000000 14.375614
v -32.350582 10.000000 18.775013
v -29.625383 10.000000 22.853615
v -26.391085 10.000000 26.541515
v -22.703184 10.000000 29.775814
v -18.624584 10.000000 32.501011
v -14.225183 10.000000 34.670513
v -9.580284 10.000000 36.247211
v -4.769284 10.000000 37.204212
v 0.125416 10.000000 50.025013
v 6.651717 10.000000 49.597210
v 13.066416 10.000000 48.321316
v 19.259615 10.000000 46.219013
v 25.125416 10.000000 43.326313
v 30.563515 10.000000 39.692715
v 35.480717 10.000000 35.380314
v 39.793118 10.000000 30.463116
v 43.426716 10.000000 25.025013
v 46.319416 10.000000 19.159214
v 48.421715 10.000000 12.966015
v 49.697617 10.000000 6.551311
v 50.125416 10.000000 0.025013
v 49.697617 10.000000 -6.501287
v 48.421715 10.000000 -12.915987
v 46.319416 10.000000 -19.109186
v 43.426716 10.000000 -24.974987
v 39.793118 10.000000 -30.413086
v 35.480717 10.000000 -35.330288
v 30.563515 10.000000 -39.642689
v 25.125416 10.000000 -43.276287
v 19.259615 10.000000 -46.168987
v 13.066416 10.000000 -48.271286
v 6.651717 10.000000 -49.547188
v 0.125416 10.000000 -49.974987
v -6.400884 10.000000 -49.547188
v -12.815584 10.000000 -48.271286
v -19.008783 10.000000 -46.168987
v -24.874584 10.000000 -43.276287
v -30.312685 10.000000 -39.642689
v -35.229885 10.000000 -35.330288
v -39.542286 10.000000 -30.413086
v -43.175884 10.000000 -24.974987
v -46.068584 10.000000 -19.109186
v -48.170883 10.000000 -12.915987
v -49.446785 10.000000 -6.501287
v -49.874584 10.000000 0.025013
v -49.446785 10.000000 6.551311
v -48.170883 10.000000 12.966015
v -46.068584 10.000000 19.159214
v -43.175884 10.000000 25.025013
v -39.542286 10.000000 30.463116
v -35.229885 10.000000 35.380314
v -30.312685 10.000000 39.692715
v -24.874584 10.000000 43.326313
v -19.008783 10.000000 46.219013
v -12.815584 10.000000 48.321316
v -6.400884 10.000000 49.597210
vn -0.0000 -1.0000 -0.0000
vn -0.0654 -0.0000 -0.9979
vn -0.1951 -0.0000 -0.9808
vn -0.3214 -0.0000 -0.9469
vn -0.4423 -0.0000 -0.8969
vn -0.5556 -0.0000 -0.8315
vn -0.6594 -0.0000 -0.7518
vn -0.7518 -0.0000 -0.6594
vn -0.8315 -0.0000 -0.5556
vn -0.8969 -0.0000 -0.4423
vn -0.9469 -0.0000 -0.3214
vn -0.9808 -0.0000 -0.1951
vn -0.9979 -0.0000 -0.0654
vn -0.9979 -0.0000 0.0654
vn -0.9808 -0.0000 0.1951
vn -0.9469 -0.0000 0.3214
vn -0.8969 -0.0000 0.4423
vn -0.8315 -0.0000 0.5556
vn -0.7518 -0.0000 0.6594
vn -0.6594 -0.0000 0.7518
vn -0.5556 -0.0000 0.8315
vn -0.4423 -0.0000 0.8969
vn -0.3214 -0.0000 0.9469
vn -0.1951 -0.0000 0.9808
vn -0.0654 -0.0000 0.9979
vn 0.0654 -0.0000 0.9979
vn 0.1951 -0.0000 0.9808
vn 0.3214 -0.0000 0.9469
vn 0.4423 -0.0000 0.8969
vn 0.5556 -0.0000 0.8315
vn 0.6594 -0.0000 0.7518
vn 0.7518 -0.0000 0.6594
vn 0.8315 -0.0000 0.5556
vn 0.8969 -0.0000 0.4423
vn 0.9469 -0.0000 0.3214
vn 0.9808 -0.0000 0.1951
vn 0.9979 -0.0000 0.0654
vn 0.9979 -0.0000 -0.0654
vn 0.9808 -0.0000 -0.1951
vn 0.9469 -0.0000 -0.3214
vn 0.8969 -0.0000 -0.4423
vn 0.8315 -0.0000 -0.5556
vn 0.7518 -0.0000 -0.6594
vn 0.6594 -0.0000 -0.7518
vn 0.5556 -0.0000 -0.8315
vn 0.4423 -0.0000 -0.8969
vn 0.3214 -0.0000 -0.9469
vn 0.1951 -0.0000 -0.9808
vn 0.0654 -0.0000 -0.9979
vn -0.0000 1.0000 -0.0000
vt 0.000000 0.000000
vt 1.196685 -24.499996
vt 0.750000 -24.286095
vt 0.750000 -18.089596
vt 1.201274 -18.249996
vt 0.750000 -23.648148
vt 0.750000 -17.611095
vt 0.750000 -22.596996
vt 0.750000 -16.822746
vt 0.750000 -21.150648
vt 0.750000 -15.737995
vt 0.750000 -19.333849
vt 0.750000 -14.375398
vt 0.750000 -17.177649
vt 0.750000 -12.758248
vt 0.750000 -14.719049
vt 0.750000 -10.914298
vt 0.750000 -11.999998
vt 0.750000 -8.874997
vt 0.750000 -9.067099
vt 0.750000 -6.675298
vt 0.750000 -5.970499
vt 0.750000 -4.352848
vt 0.750000 -2.763148
vt 0.750000 -1.947347
vt 0.750000 0.500002
vt 0.750000 0.500002
vt 0.750000 3.763152
vt 0.750000 2.947352
vt 0.750000 6.970502
vt 0.750000 5.352852
vt 0.750000 10.067101
vt 0.750000 7.675302
vt 0.750000 13.000002
vt 0.750000 9.875003
vt 0.750000 15.719051
vt 0.750000 11.914303
vt 0.750000 18.177652
vt 0.750000 13.758253
vt 0.750000 20.333853
vt 0.750000 15.375403
vt 0.750000 22.150652
vt 0.750000 16.738003
vt 0.750000 23.597004
vt 0.750000 17.822754
vt 0.750000 24.648153
vt 0.750000 18.611103
vt 0.750000 25.286104
vt 0.750000 19.089603
vt 0.634513 25.500004
vt 0.610859 19.250004
vt 0.250000 25.286104
vt 0.250000 19.089603
vt 0.250000 24.648153
vt 0.250000 18.611103
vt 0.250000 23.597004
vt 0.250000 17.822754
vt 0.250000 22.150656
vt 0.250000 16.738003
vt 0.250000 20.333857
vt 0.250000 15.375405
vt 0.250000 18.177656
vt 0.250000 13.758255
vt 0.250000 15.719055
vt 0.250000 11.914305
vt 0.250000 13.000006
vt 0.250000 9.875005
vt 0.250000 10.067105
vt 0.250000 7.675305
vt 0.250000 6.970506
vt 0.250000 5.352855
vt 0.250000 3.763156
vt 0.250000 2.947355
vt 0.250000 0.500006
vt 0.250000 0.500005
vt 0.250000 -2.763143
vt 0.250000 -1.947344
vt 0.250000 -5.970495
vt 0.250000 -4.352845
vt 0.250000 -9.067095
vt 0.250000 -6.675295
vt 0.250000 -11.999994
vt 0.250000 -8.874995
vt 0.250000 -14.719046
vt 0.250000 -10.914296
vt 0.250000 -17.177645
vt 0.250000 -12.758246
vt 0.250000 -19.333845
vt 0.250000 -14.375396
vt 0.250000 -21.150644
vt 0.250000 -15.737995
vt 0.250000 -22.596996
vt 0.250000 -16.822746
vt 0.250000 -23.648148
vt 0.250000 -17.611095
vt 0.250000 -24.286095
vt 0.250000 -18.089596
vt 0.196685 -24.499996
vt 0.201274 -18.249996
s 0
usemtl color_11107152
f 1/1/1 2/1/1 3/1/1
f 1/1/1 3/1/1 4/1/1
f 2/1/1 5/1/1 6/1/1
f 2/1/1 6/1/1 3/1/1
f 5/1/1 7/1/1 8/1/1
f 5/1/1 8/1/1 6/1/1
f 7/1/1 9/1/1 10/1/1
f 7/1/1 10/1/1 8/1/1
f 9/1/1 11/1/1 12/1/1
f 9/1/1 12/1/1 10/1/1
f 11/1/1 13/1/1 14/1/1
f 11/1/1 14/1/1 12/1/1
f 13/1/1 15/1/1 16/1/1
f 13/1/1 16/1/1 14/1/1
f 15/1/1 17/1/1 18/1/1
f 15/1/1 18/1/1 16/1/1
f 17/1/1 19/1/1 20/1/1
f 17/1/1 20/1/1 18/1/1
f 19/1/1 21/1/1 22/1/1
f 19/1/1 22/1/1 20/1/1
f 21/1/1 23/1/1 24/1/1
f 21/1/1 24/1/1 22/1/1
f 23/1/1 25/1/1 26/1/1
f 23/1/1 26/1/1 24/1/1
f 25/1/1 27/1/1 28/1/1
f 25/1/1 28/1/1 26/1/1
f 27/1/1 29/1/1 30/1/1
f 27/1/1 30/1/1 28/1/1
f 29/1/1 31/1/1 32/1/1
f 29/1/1 32/1/1 30/1/1
f 31/1/1 33/1/1 34/1/1
f 31/1/1 34/1/1 32/1/1
f 33/1/1 35/1/1 36/1/1
f 33/1/1 36/1/1 34/1/1
f 35/1/1 37/1/1 38/1/1
f 35/1/1 38/1/1 36/1/1
f 37/1/1 39/1/1 40/1/1
f 37/1/1 40/1/1 38/1/1
f 39/1/1 41/1/1 42/1/1
f 39/1/1 42/1/1 40/1/1
f 41/1/1 43/1/1 44/1/1
f 41/1/1 44/1/1 42/1/1
f 43/1/1 45/1/1 46/1/1
f 43/1/1 46/1/1 44/1/1
f 45/1/1 47/1/1 48/1/1
f 45/1/1 48/1/1 46/1/1
f 47/1/1 49/1/1 50/1/1
f 47/1/1 50/1/1 48/1/1
f 49/1/1 51/1/1 52/1/1
f 49/1/1 52/1/1 50/1/1
f 51/1/1 53/1/1 54/1/1
f 51/1/1 54/1/1 52/1/1
f 53/1/1 55/1/1 56/1/1
f 53/1/1 56/1/1 54/1/1
f 55/1/1 57/1/1 58/1/1
f 55/1/1 58/1/1 56/1/1
f 57/1/1 59/1/1 60/1/1
f 57/1/1 60/1/1 58/1/1
f 59/1/1 61/1/1 62/1/1
f 59/1/1 62/1/1 60/1/1
f 61/1/1 63/1/1 64/1/1
f 61/1/1 64/1/1 62/1/1
f 63/1/1 65/1/1 66/1/1
f 63/1/1 66/1/1 64/1/1
f 65/1/1 67/1/1 68/1/1
f 65/1/1 68/1/1 66/1/1
f 67/1/1 69/1/1 70/1/1
f 67/1/1 70/1/1 68/1/1
f 69/1/1 71/1/1 72/1/1
f 69/1/1 72/1/1 70/1/1
f 71/1/1 73/1/1 74/1/1
f 71/1/1 74/1/1 72/1/1
f 73/1/1 75/1/1 76/1/1
f 73/1/1 76/1/1 74/1/1
f 75/1/1 77/1/1 78/1/1
f 75/1/1 78/1/1 76/1/1
f 77/1/1 79/1/1 80/1/1
f 77/1/1 80/1/1 78/1/1
f 79/1/1 81/1/1 82/1/1
f 79/1/1 82/1/1 80/1/1
f 81/1/1 83/1/1 84/1/1
f 81/1/1 84/1/1 82/1/1
f 83/1/1 85/1/1 86/1/1
f 83/1/1 86/1/1 84/1/1
f 85/1/1 87/1/1 88/1/1
f 85/1/1 88/1/1 86/1/1
f 87/1/1 89/1/1 90/1/1
f 87/1/1 90/1/1 88/1/1
f 89/1/1 91/1/1 92/1/1
f 89/1/1 92/1/1 90/1/1
f 91/1/1 93/1/1 94/1/1
f 91/1/1 94/1/1 92/1/1
f 93/1/1 95/1/1 96/1/1
f 93/1/1 96/1/1 94/1/1
f 95/1/1 1/1/1 4/1/1
f 95/1/1 4/1/1 96/1/1
f 97/1/2 98/1/2 2/1/2
f 97/1/2 2/1/2 1/1/2
f 98/1/3 99/1/3 5/1/3
f 98/1/3 5/1/3 2/1/3
f 99/1/4 100/1/4 7/1/4
f 99/1/4 7/1/4 5/1/4
f 100/1/5 101/1/5 9/1/5
f 100/1/5 9/1/5 7/1/5
f 101/1/6 102/1/6 11/1/6
f 101/1/6 11/1/6 9/1/6
f 102/1/7 103/1/7 13/1/7
f 102/1/7 13/1/7 11/1/7
f 103/1/8 104/1/8 15/1/8
f 103/1/8 15/1/8 13/1/8
f 104/1/9 105/1/9 17/1/9
f 104/1/9 17/1/9 15/1/9
f 105/1/10 106/1/10 19/1/10
f 105/1/10 19/1/10 17/1/10
f 106/1/11 107/1/11 21/1/11
f 106/1/11 21/1/11 19/1/11
f 107/1/12 108/1/12 23/1/12
f 107/1/12 23/1/12 21/1/12
f 108/1/13 109/1/13 25/1/13
f 108/1/13 25/1/13 23/1/13
f 109/1/14 110/1/14 27/1/14
f 109/1/14 27/1/14 25/1/14
f 110/1/15 111/1/15 29/1/15
f 110/1/15 29/1/15 27/1/15
f 111/1/16 112/1/16 31/1/16
f 111/1/16 31/1/16 29/1/16
f 112/1/17 113/1/17 33/1/17
f 112/1/17 33/1/17 31/1/17
f 113/1/18 114/1/18 35/1/18
f 113/1/18 35/1/18 33/1/18
f 114/1/19 115/1/19 37/1/19
f 114/1/19 37/1/19 35/1/19
f 115/1/20 116/1/20 39/1/20
f 115/1/20 39/1/20 37/1/20
f 116/1/21 117/1/21 41/1/21
f 116/1/21 41/1/21 39/1/21
f 117/1/22 118/1/22 43/1/22
f 117/1/22 43/1/22 41/1/22
f 118/1/23 119/1/23 45/1/23
f 118/1/23 45/1/23 43/1/23
f 119/1/24 120/1/24 47/1/24
f 119/1/24 47/1/24 45/1/24
f 120/1/25 121/1/25 49/1/25
f 120/1/25 49/1/25 47/1/25
f 121/1/26 122/1/26 51/1/26
f 121/1/26 51/1/26 49/1/26
f 122/1/27 123/1/27 53/1/27
f 122/1/27 53/1/27 51/1/27
f 123/1/28 124/1/28 55/1/28
f 123/1/28 55/1/28 53/1/28
f 124/1/29 125/1/29 57/1/29
f 124/1/29 57/1/29 55/1/29
f 125/1/30 126/1/30 59/1/30
f 125/1/30 59/1/30 57/1/30
f 126/1/31 127/1/31 61/1/31
f 126/1/31 61/1/31 59/1/31
f 127/1/32 128/1/32 63/1/32
f 127/1/32 63/1/32 61/1/32
f 128/1/33 129/1/33 65/1/33
f 128/1/33 65/1/33 63/1/33
f 129/1/34 130/1/34 67/1/34
f 129/1/34 67/1/34 65/1/34
f 130/1/35 131/1/35 69/1/35
f 130/1/35 69/1/35 67/1/35
f 131/1/36 132/1/36 71/1/36
f 131/1/36 71/1/36 69/1/36
f 132/1/37 133/1/37 73/1/37
f 132/1/37 73/1/37 71/1/37
f 133/1/38 134/1/38 75/1/38
f 133/1/38 75/1/38 73/1/38
f 134/1/39 135/1/39 77/1/39
f 134/1/39 77/1/39 75/1/39
f 135/1/40 136/1/40 79/1/40
f 135/1/40 79/1/40 77/1/40
f 136/1/41 137/1/41 81/1/41
f 136/1/41 81/1/41 79/1/41
f 137/1/42 138/1/42 83/1/42
f 137/1/42 83/1/42 81/1/42
f 138/1/43 139/1/43 85/1/43
f 138/1/43 85/1/43 83/1/43
f 139/1/44 140/1/44 87/1/44
f 139/1/44 87/1/44 85/1/44
f 140/1/45 141/1/45 89/1/45
f 140/1/45 89/1/45 87/1/45
f 141/1/46 142/1/46 91/1/46
f 141/1/46 91/1/46 89/1/46
f 142/1/47 143/1/47 93/1/47
f 142/1/47 93/1/47 91/1/47
f 143/1/48 144/1/48 95/1/48
f 143/1/48 95/1/48 93/1/48
f 144/1/49 97/1/49 1/1/49
f 144/1/49 1/1/49 95/1/49
f 145/2/50 146/3/50 98/4/50
f 145/2/50 98/4/50 97/5/50
f 146/3/50 147/6/50 99/7/50
f 146/3/50 99/7/50 98/4/50
f 147/6/50 148/8/50 100/9/50
f 147/6/50 100/9/50 99/7/50
f 148/8/50 149/10/50 101/11/50
f 148/8/50 101/11/50 100/9/50
f 149/10/50 150/12/50 102/13/50
f 149/10/50 102/13/50 101/11/50
f 150/12/50 151/14/50 103/15/50
f 150/12/50 103/15/50 102/13/50
f 151/14/50 152/16/50 104/17/50
f 151/14/50 104/17/50 103/15/50
f 152/16/50 153/18/50 105/19/50
f 152/16/50 105/19/50 104/17/50
f 153/18/50 154/20/50 106/21/50
f 153/18/50 106/21/50 105/19/50
f 154/20/50 155/22/50 107/23/50
f 154/20/50 107/23/50 106/21/50
f 155/22/50 156/24/50 108/25/50
f 155/22/50 108/25/50 107/23/50
f 156/24/50 157/26/50 109/27/50
f 156/24/50 109/27/50 108/25/50
f 157/26/50 158/28/50 110/29/50
f 157/26/50 110/29/50 109/27/50
f 158/28/50 159/30/50 111/31/50
f 158/28/50 111/31/50 110/29/50
f 159/30/50 160/32/50 112/33/50
f 159/30/50 112/33/50 111/31/50
f 160/32/50 161/34/50 113/35/50
f 160/32/50 113/35/50 112/33/50
f 161/34/50 162/36/50 114/37/50
f 161/34/50 114/37/50 113/35/50
f 162/36/50 163/38/50 115/39/50
f 162/36/50 115/39/50 114/37/50
f 163/38/50 164/40/50 116/41/50
f 163/38/50 116/41/50 115/39/50
f 164/40/50 165/42/50 117/43/50
f 164/40/50 117/43/50 116/41/50
f 165/42/50 166/44/50 118/45/50
f 165/42/50 118/45/50 117/43/50
f 166/44/50 167/46/50 119/47/50
f 166/44/50 119/47/50 118/45/50
f 167/46/50 168/48/50 120/49/50
f 167/46/50 120/49/50 119/47/50
f 168/48/50 169/50/50 121/51/50
f 168/48/50 121/51/50 120/49/50
f 169/50/50 170/52/50 122/53/50
f 169/50/50 122/53/50 121/51/50
f 170/52/50 171/54/50 123/55/50
f 170/52/50 123/55/50 122/53/50
f 171/54/50 172/56/50 124/57/50
f 171/54/50 124/57/50 123/55/50
f 172/56/50 173/58/50 125/59/50
f 172/56/50 125/59/50 124/57/50
f 173/58/50 174/60/50 126/61/50
f 173/58/50 126/61/50 125/59/50
f 174/60/50 175/62/50 127/63/50
f 174/60/50 127/63/50 126/61/50
f 175/62/50 176/64/50 128/65/50
f 175/62/50 128/65/50 127/63/50
f 176/64/50 177/66/50 129/67/50
f 176/64/50 129/67/50 128/65/50
f 177/66/50 178/68/50 130/69/50
f 177/66/50 130/69/50 129/67/50
f 178/68/50 179/70/50 131/71/50
f 178/68/50 131/71/50 130/69/50
f 179/70/50 180/72/50 132/73/50
f 179/70/50 132/73/50 131/71/50
f 180/72/50 181/74/50 133/75/50
f 180/72/50 133/75/50 132/73/50
f 181/74/50 182/76/50 134/77/50
f 181/74/50 134/77/50 133/75/50
f 182/76/50 183/78/50 135/79/50
f 182/76/50 135/79/50 134/77/50
f 183/78/50 184/80/50 136/81/50
f 183/78/50 136/81/50 135/79/50
f 184/80/50 185/82/50 137/83/50
f 184/80/50 137/83/50 136/81/50
f 185/82/50 186/84/50 138/85/50
f 185/82/50 138/85/50 137/83/50
f 186/84/50 187/86/50 139/87/50
f 186/84/50 139/87/50 138/85/50
f 187/86/50 188/88/50 140/89/50
f 187/86/50 140/89/50 139/87/50
f 188/88/50 189/90/50 141/91/50
f 188/88/50 141/91/50 140/89/50
f 189/90/50 190/92/50 142/93/50
f 189/90/50 142/93/50 141/91/50
f 190/92/50 191/94/50 143/95/50
f 190/92/50 143/95/50 142/93/50
f 191/94/50 192/96/50 144/97/50
f 191/94/50 144/97/50 143/95/50
f 192/96/50 145/98/50 97/99/50
f 192/96/50 97/99/50 144/97/50
f 96/1/25 145/1/25 192/1/25
f 96/1/25 4/1/25 145/1/25
f 94/1/24 192/1/24 191/1/24
f 94/1/24 96/1/24 192/1/24
f 92/1/23 191/1/23 190/1/23
f 92/1/23 94/1/23 191/1/23
f 90/1/22 190/1/22 189/1/22
f 90/1/22 92/1/22 190/1/22
f 88/1/21 189/1/21 188/1/21
f 88/1/21 90/1/21 189/1/21
f 86/1/20 188/1/20 187/1/20
f 86/1/20 88/1/20 188/1/20
f 84/1/19 187/1/19 186/1/19
f 84/1/19 86/1/19 187/1/19
f 82/1/18 186/1/18 185/1/18
f 82/1/18 84/1/18 186/1/18
f 80/1/17 185/1/17 184/1/17
f 80/1/17 82/1/17 185/1/17
f 78/1/16 184/1/16 183/1/16
f 78/1/16 80/1/16 184/1/16
f 76/1/15 183/1/15 182/1/15
f 76/1/15 78/1/15 183/1/15
f 74/1/14 182/1/14 181/1/14
f 74/1/14 76/1/14 182/1/14
f 72/1/13 181/1/13 180/1/13
f 72/1/13 74/1/13 181/1/13
f 70/1/12 180/1/12 179/1/12
f 70/1/12 72/1/12 180/1/12
f 68/1/11 179/1/11 178/1/11
f 68/1/11 70/1/11 179/1/11
f 66/1/10 178/1/10 177/1/10
f 66/1/10 68/1/10 178/1/10
f 64/1/9 177/1/9 176/1/9
f 64/1/9 66/1/9 177/1/9
f 62/1/8 176/1/8 175/1/8
f 62/1/8 64/1/8 176/1/8
f 60/1/7 175/1/7 174/1/7
f 60/1/7 62/1/7 175/1/7
f 58/1/6 174/1/6 173/1/6
f 58/1/6 60/1/6 174/1/6
f 56/1/5 173/1/5 172/1/5
f 56/1/5 58/1/5 173/1/5
f 54/1/4 172/1/4 171/1/4
f 54/1/4 56/1/4 172/1/4
f 52/1/3 171/1/3 170/1/3
f 52/1/3 54/1/3 171/1/3
f 50/1/2 170/1/2 169/1/2
f 50/1/2 52/1/2 170/1/2
f 4/1/26 3/1/26 146/1/26
f 4/1/26 146/1/26 145/1/26
f 3/1/27 6/1/27 147/1/27
f 3/1/27 147/1/27 146/1/27
f 6/1/28 8/1/28 148/1/28
f 6/1/28 148/1/28 147/1/28
f 8/1/29 10/1/29 149/1/29
f 8/1/29 149/1/29 148/1/29
f 10/1/30 12/1/30 150/1/30
f 10/1/30 150/1/30 149/1/30
f 12/1/31 14/1/31 151/1/31
f 12/1/31 151/1/31 150/1/31
f 14/1/32 16/1/32 152/1/32
f 14/1/32 152/1/32 151/1/32
f 16/1/33 18/1/33 153/1/33
f 16/1/33 153/1/33 152/1/33
f 18/1/34 20/1/34 154/1/34
f 18/1/34 154/1/34 153/1/34
f 20/1/35 22/1/35 155/1/35
f 20/1/35 155/1/35 154/1/35
f 22/1/36 24/1/36 156/1/36
f 22/1/36 156/1/36 155/1/36
f 24/1/37 26/1/37 157/1/37
f 24/1/37 157/1/37 156/1/37
f 26/1/38 28/1/38 158/1/38
f 26/1/38 158/1/38 157/1/38
f 28/1/39 30/1/39 159/1/39
f 28/1/39 159/1/39 158/1/39
f 30/1/40 32/1/40 160/1/40
f 30/1/40 160/1/40 159/1/40
f 32/1/41 34/1/41 161/1/41
f 32/1/41 161/1/41 160/1/41
f 34/1/42 36/1/42 162/1/42
f 34/1/42 162/1/42 161/1/42
f 36/1/43 38/1/43 163/1/43
f 36/1/43 163/1/43 162/1/43
f 38/1/44 40/1/44 164/1/44
f 38/1/44 164/1/44 163/1/44
f 40/1/45 42/1/45 165/1/45
f 40/1/45 165/1/45 164/1/45
f 42/1/46 44/1/46 166/1/46
f 42/1/46 166/1/46 165/1/46
f 44/1/47 46/1/47 167/1/47
f 44/1/47 167/1/47 166/1/47
f 46/1/48 48/1/48 168/1/48
f 46/1/48 168/1/48 167/1/48
f 48/1/49 50/1/49 169/1/49
f 48/1/49 169/1/49 168/1/49
o obj_1
v 5.346416 0.000000 39.682812
v 0.125416 0.000000 40.025013
v 0.125416 0.000000 0.025013
v 10.478216 0.000000 38.662014
v 15.432716 0.000000 36.980213
v 20.125416 0.000000 34.666012
v 24.475916 0.000000 31.759113
v 28.409718 0.000000 28.309315
v 31.859516 0.000000 24.375511
v 34.766415 0.000000 20.025013
v 37.080616 0.000000 15.332314
v 38.762417 0.000000 10.377811
v 39.783215 0.000000 5.246014
v 40.125416 0.000000 0.025013
v 39.783215 0.000000 -5.195988
v 38.762417 0.000000 -10.327787
v 37.080616 0.000000 -15.282288
v 34.766415 0.000000 -19.974987
v 31.859516 0.000000 -24.325487
v 28.409718 0.000000 -28.259287
v 24.475916 0.000000 -31.709087
v 20.125416 0.000000 -34.615986
v 15.432716 0.000000 -36.930187
v 10.478216 0.000000 -38.611988
v 5.346416 0.000000 -39.632786
v 0.125416 0.000000 -39.974987
v -5.095584 0.000000 -39.632786
v -10.227384 0.000000 -38.611988
v -15.181883 0.000000 -36.930187
v -19.874584 0.000000 -34.615986
v -24.225084 0.000000 -31.709087
v -28.158884 0.000000 -28.259287
v -31.608685 0.000000 -24.325487
v -34.515583 0.000000 -19.974987
v -36.829784 0.000000 -15.282288
v -38.511585 0.000000 -10.327787
v -39.532383 0.000000 -5.195988
v -39.874584 0.000000 0.025013
v -39.532383 0.000000 5.246014
v -38.511585 0.000000 10.377811
v -36.829784 0.000000 15.332314
v -34.515583 0.000000 20.025013
v -31.608685 0.000000 24.375511
v -28.158884 0.000000 28.309315
v -24.225084 0.000000 31.759113
v -19.874584 0.000000 34.666012
v -15.181883 0.000000 36.980213
v -10.227384 0.000000 38.662014
v -5.095584 0.000000 39.682812
v 0.125416 2.000000 40.025013
v 5.346416 2.000000 39.682812
v 0.125416 2.000000 0.025013
v 10.478216 2.000000 38.662014
v 15.432716 2.000000 36.980213
v 20.125416 2.000000 34.666012
v 24.475916 2.000000 31.759113
v 28.409718 2.000000 28.309315
v 31.859516 2.000000 24.375511
v 34.766415 2.000000 20.025013
v 37.080616 2.000000 15.332314
v 38.762417 2.000000 10.377811
v 39.783215 2.000000 5.246014
v 40.125416 2.000000 0.025013
v 39.783215 2.000000 -5.195988
v 38.762417 2.000000 -10.327787
v 37.080616 2.000000 -15.282288
v 34.766415 2.000000 -19.974987
v 31.859516 2.000000 -24.325487
v 28.409718 2.000000 -28.259287
v 24.475916 2.000000 -31.709087
v 20.125416 2.000000 -34.615986
v 15.432716 2.000000 -36.930187
v 10.478216 2.000000 -38.611988
v 5.346416 2.000000 -39.632786
v 0.125416 2.000000 -39.974987
v -5.095584 2.000000 -39.632786
v -10.227384 2.000000 -38.611988
v -15.181883 2.000000 -36.930187
v -19.874584 2.000000 -34.615986
v -24.225084 2.000000 -31.709087
v -28.158884 2.000000 -28.259287
v -31.608685 2.000000 -24.325487
v -34.515583 2.000000 -19.974987
v -36.829784 2.000000 -15.282288
v -38.511585 2.000000 -10.327787
v -39.532383 2.000000 -5.195988
v -39.874584 2.000000 0.025013
v -39.532383 2.000000 5.246014
v -38.511585 2.000000 10.377811
v -36.829784 2.000000 15.332314
v -34.515583 2.000000 20.025013
v -31.608685 2.000000 24.375511
v -28.158884 2.000000 28.309315
v -24.225084 2.000000 31.759113
v -19.874584 2.000000 34.666012
v -15.181883 2.000000 36.980213
v -10.227384 2.000000 38.662014
v -5.095584 2.000000 39.682812
vn -0.0000 -1.0000 -0.0000
vn -0.0000 1.0000 -0.0000
vn -0.0654 -0.0000 0.9979
vn -0.1951 -0.0000 0.9808
vn -0.3214 -0.0000 0.9469
vn -0.4423 -0.0000 0.8969
vn -0.5556 -0.0000 0.8315
vn -0.6593 -0.0000 0.7518
vn -0.7518 -0.0000 0.6593
vn -0.8315 -0.0000 0.5556
vn -0.8969 -0.0000 0.4423
vn -0.9469 -0.0000 0.3214
vn -0.9808 -0.0000 0.1951
vn -0.9979 -0.0000 0.0654
vn -0.9979 -0.0000 -0.0654
vn -0.9808 -0.0000 -0.1951
vn -0.9469 -0.0000 -0.3214
vn -0.8969 -0.0000 -0.4423
vn -0.8315 -0.0000 -0.5556
vn -0.7518 -0.0000 -0.6593
vn -0.6593 -0.0000 -0.7518
vn -0.5556 -0.0000 -0.8315
vn -0.4423 -0.0000 -0.8969
vn -0.3214 -0.0000 -0.9469
vn -0.1951 -0.0000 -0.9808
vn -0.0654 -0.0000 -0.9979
vn 0.0654 -0.0000 0.9979
vn 0.1951 -0.0000 0.9808
vn 0.3214 -0.0000 0.9469
vn 0.4423 -0.0000 0.8969
vn 0.5556 -0.0000 0.8315
vn 0.6593 -0.0000 0.7518
vn 0.7518 -0.0000 0.6593
vn 0.8315 -0.0000 0.5556
vn 0.8969 -0.0000 0.4423
vn 0.9469 -0.0000 0.3214
vn 0.9808 -0.0000 0.1951
vn 0.9979 -0.0000 0.0654
vn 0.9979 -0.0000 -0.0654
vn 0.9808 -0.0000 -0.1951
vn 0.9469 -0.0000 -0.3214
vn 0.8969 -0.0000 -0.4423
vn 0.8315 -0.0000 -0.5556
vn 0.7518 -0.0000 -0.6593
vn 0.6593 -0.0000 -0.7518
vn 0.5556 -0.0000 -0.8315
vn 0.4423 -0.0000 -0.8969
vn 0.3214 -0.0000 -0.9469
vn 0.1951 -0.0000 -0.9808
vn 0.0654 -0.0000 -0.9979
s 0
usemtl color_4634441
f 193//51 194//51 195//51
f 196//51 193//51 195//51
f 197//51 196//51 195//51
f 198//51 197//51 195//51
f 199//51 198//51 195//51
f 200//51 199//51 195//51
f 201//51 200//51 195//51
f 202//51 201//51 195//51
f 203//51 202//51 195//51
f 204//51 203//51 195//51
f 205//51 204//51 195//51
f 206//51 205//51 195//51
f 207//51 206//51 195//51
f 208//51 207//51 195//51
f 209//51 208//51 195//51
f 210//51 209//51 195//51
f 211//51 210//51 195//51
f 212//51 211//51 195//51
f 213//51 212//51 195//51
f 214//51 213//51 195//51
f 215//51 214//51 195//51
f 216//51 215//51 195//51
f 217//51 216//51 195//51
f 218//51 217//51 195//51
f 219//51 218//51 195//51
f 220//51 219//51 195//51
f 221//51 220//51 195//51
f 222//51 221//51 195//51
f 223//51 222//51 195//51
f 224//51 223//51 195//51
f 225//51 224//51 195//51
f 226//51 225//51 195//51
f 227//51 226//51 195//51
f 228//51 227//51 195//51
f 229//51 228//51 195//51
f 230//51 229//51 195//51
f 231//51 230//51 195//51
f 232//51 231//51 195//51
f 233//51 232//51 195//51
f 234//51 233//51 195//51
f 235//51 234//51 195//51
f 236//51 235//51 195//51
f 237//51 236//51 195//51
f 238//51 237//51 195//51
f 239//51 238//51 195//51
f 240//51 239//51 195//51
f 241//51 240//51 195//51
f 194//51 241//51 195//51
f 242//52 243//52 244//52
f 243//52 245//52 244//52
f 245//52 246//52 244//52
f 246//52 247//52 244//52
f 247//52 248//52 244//52
f 248//52 249//52 244//52
f 249//52 250//52 244//52
f 250//52 251//52 244//52
f 251//52 252//52 244//52
f 252//52 253//52 244//52
f 253//52 254//52 244//52
f 254//52 255//52 244//52
f 255//52 256//52 244//52
f 256//52 257//52 244//52
f 257//52 258//52 244//52
f 258//52 259//52 244//52
f 259//52 260//52 244//52
f 260//52 261//52 244//52
f 261//52 262//52 244//52
f 262//52 263//52 244//52
f 263//52 264//52 244//52
f 264//52 265//52 244//52
f 265//52 266//52 244//52
f 266//52 267//52 244//52
f 267//52 268//52 244//52
f 268//52 269//52 244//52
f 269//52 270//52 244//52
f 270//52 271//52 244//52
f 271//52 272//52 244//52
f 272//52 273//52 244//52
f 273//52 274//52 244//52
f 274//52 275//52 244//52
f 275//52 276//52 244//52
f 276//52 277//52 244//52
f 277//52 278//52 244//52
f 278//52 279//52 244//52
f 279//52 280//52 244//52
f 280//52 281//52 244//52
f 281//52 282//52 244//52
f 282//52 283//52 244//52
f 283//52 284//52 244//52
f 284//52 285//52 244//52
f 285//52 286//52 244//52
f 286//52 287//52 244//52
f 287//52 288//52 244//52
f 288//52 289//52 244//52
f 289//52 290//52 244//52
f 290//52 242//52 244//52
f 241//53 242//53 290//53
f 241//53 194//53 242//53
f 240//54 290//54 289//54
f 240//54 241//54 290//54
f 239//55 289//55 288//55
f 239//55 240//55 289//55
f 238//56 288//56 287//56
f 238//56 239//56 288//56
f 237//57 287//57 286//57
f 237//57 238//57 287//57
f 236//58 286//58 285//58
f 236//58 237//58 286//58
f 235//59 285//59 284//59
f 235//59 236//59 285//59
f 234//60 284//60 283//60
f 234//60 235//60 284//60
f 233//61 283//61 282//61
f 233//61 234//61 283//61
f 232//62 282//62 281//62
f 232//62 233//62 282//62
f 231//63 281//63 280//63
f 231//63 232//63 281//63
f 230//64 280//64 279//64
f 230//64 231//64 280//64
f 229//65 279//65 278//65
f 229//65 230//65 279//65
f 228//66 278//66 277//66
f 228//66 229//66 278//66
f 227//67 277//67 276//67
f 227//67 228//67 277//67
f 226//68 276//68 275//68
f 226//68 227//68 276//68
f 225//69 275//69 274//69
f 225//69 226//69 275//69
f 224//70 274//70 273//70
f 224//70 225//70 274//70
f 223//71 273//71 272//71
f 223//71 224//71 273//71
f 222//72 272//72 271//72
f 222//72 223//72 272//72
f 221//73 271//73 270//73
f 221//73 222//73 271//73
f 220//74 270//74 269//74
f 220//74 221//74 270//74
f 219//75 269//75 268//75
f 219//75 220//75 269//75
f 218//76 268//76 267//76
f 218//76 219//76 268//76
f 194//77 193//77 243//77
f 194//77 243//77 242//77
f 193//78 196//78 245//78
f 193//78 245//78 243//78
f 196//79 197//79 246//79
f 196//79 246//79 245//79
f 197//80 198//80 247//80
f 197//80 247//80 246//80
f 198//81 199//81 248//81
f 198//81 248//81 247//81
f 199//82 200//82 249//82
f 199//82 249//82 248//82
f 200//83 201//83 250//83
f 200//83 250//83 249//83
f 201//84 202//84 251//84
f 201//84 251//84 250//84
f 202//85 203//85 252//85
f 202//85 252//85 251//85
f 203//86 204//86 253//86
f 203//86 253//86 252//86
f 204//87 205//87 254//87
f 204//87 254//87 253//87
f 205//88 206//88 255//88
f 205//88 255//88 254//88
f 206//89 207//89 256//89
f 206//89 256//89 255//89
f 207//90 208//90 257//90
f 207//90 257//90 256//90
f 208//91 209//91 258//91
f 208//91 258//91 257//91
f 209//92 210//92 259//92
f 209//92 259//92 258//92
f 210//93 211//93 260//93
f 210//93 260//93 259//93
f 211//94 212//94 261//94
f 211//94 261//94 260//94
f 212//95 213//95 262//95
f 212//95 262//95 261//95
f 213//96 214//96 263//96
f 213//96 263//96 262//96
f 214//97 215//97 264//97
f 214//97 264//97 263//97
f 215//98 216//98 265//98
f 215//98 265//98 264//98
f 216//99 217//99 266//99
f 216//99 266//99 265//99
f 217//100 218//100 267//100
f 217//100 267//100 266//100
